PathFileType	4	(X/Y/Z)	/Users/itak/Documents/Research/Walk-IL/dataset/trc/00360_00011.trc
DataRate	CameraRate	NumFrames	NumMarkers	Units	OrigDataRate	OrigDataStartFrame	OrigNumFrames
100.000000	100.000000	4	56	mm	100.000000	255	409
Frame#	Time	RPSI			LPSI			L3			STRN			T10			C7			CLAV			RBAK			LBAK			LSHO			LUPA			LAEL			LAOL			LWTS			LWPS			LFRA			LIFD			LHPS			LHTS			RSHO			RUPA			RAEL			RAOL			RWTS			RWPS			RFRA			RIFD			RHTS			RHPS			RBHD			LFHD			RFHD			LBHD			LHIP			RHIP			RASI			LASI			LKNE			LTHI			LANK			LTIP			LTOE			LMT1			LMT5			LHEE			RKNE			RTHI			RTIP			RTOE			RMT1			RMT5			RANK			RHEE			*53			*54			*55			
		X1	Y1	Z1	X2	Y2	Z2	X3	Y3	Z3	X4	Y4	Z4	X5	Y5	Z5	X6	Y6	Z6	X7	Y7	Z7	X8	Y8	Z8	X9	Y9	Z9	X10	Y10	Z10	X11	Y11	Z11	X12	Y12	Z12	X13	Y13	Z13	X14	Y14	Z14	X15	Y15	Z15	X16	Y16	Z16	X17	Y17	Z17	X18	Y18	Z18	X19	Y19	Z19	X20	Y20	Z20	X21	Y21	Z21	X22	Y22	Z22	X23	Y23	Z23	X24	Y24	Z24	X25	Y25	Z25	X26	Y26	Z26	X27	Y27	Z27	X28	Y28	Z28	X29	Y29	Z29	X30	Y30	Z30	X31	Y31	Z31	X32	Y32	Z32	X33	Y33	Z33	X34	Y34	Z34	X35	Y35	Z35	X36	Y36	Z36	X37	Y37	Z37	X38	Y38	Z38	X39	Y39	Z39	X40	Y40	Z40	X41	Y41	Z41	X42	Y42	Z42	X43	Y43	Z43	X44	Y44	Z44	X45	Y45	Z45	X46	Y46	Z46	X47	Y47	Z47	X48	Y48	Z48	X49	Y49	Z49	X50	Y50	Z50	X51	Y51	Z51	X52	Y52	Z52	X53	Y53	Z53	X54	Y54	Z54	X55	Y55	Z55	X56	Y56	Z56	

256	2.55	651.8014526367188	971.3369750976562	-394.2174682617188	525.2890014648438	975.211181640625	-372.8591918945312	595.3939208984375	1026.936767578125	-384.5715942382812	558.1480712890625	1227.791381835938	-600.9906005859375	594.8623657226562	1145.64990234375	-368.6059265136719	577.22998046875	1396.714233398438	-391.25	561.3583374023438	1350.863525390625	-549.9772338867188	649.625244140625	1254.968383789062	-360.8748474121094	478.552978515625	1359.361450195312	-368.1183471679688	410.958251953125	1380.3095703125	-443.1944580078125	349.5707702636719	1261.123779296875	-412.5217895507812	332.6148071289062	1059.158447265625	-412.4238586425781	406.1336669921875	1044.60498046875	-372.276611328125	331.6239624023438	811.0079345703125	-505.3179931640625	293.6552124023438	804.78125	-447.8601379394531	317.2764282226562	954.7560424804688	-418.4971923828125	326.6545715332031	649.1240234375	-497.4562683105469	299.6586303710938	735.4180908203125	-441.4326171875	312.5171203613281	733.5551147460938	-503.8788146972656	732.022705078125	1386.799560546875	-469.4071350097656	794.041015625	1320.128173828125	-472.9862670898438	832.9334106445312	1058.499755859375	-540.1104125976562	753.9135131835938	1040.81201171875	-492.7389526367188	751.4080810546875	886.8182983398438	-711.5938720703125	819.4566650390625	855.4043579101562	-695.5952758789062	835.7303466796875	1000.353698730469	-584.5958862304688	738.9718627929688	732.380615234375	-790.39208984375	749.595947265625	804.612548828125	-777.5014038085938	805.0687255859375	784.754638671875	-740.7736206054688	650.8101806640625	1607.953857421875	-447.2417602539062	506.2264709472656	1620.531372070312	-596.8341064453125	607.572509765625	1622.35205078125	-603.5240478515625	511.6405029296875	1601.051147460938	-411.2144165039062	408.119384765625	924.1907958984375	-447.7955017089844	760.3279418945312	920.339111328125	-486.3275756835938	691.4036254882812	948.33349609375	-586.6491088867188	451.2350463867188	955.1326904296875	-572.9557495117188	362.333740234375	475.1123352050781	-554.1064453125	367.9790344238281	614.006591796875	-531.6473999023438	324.7815856933594	57.33877944946289	-465.1422424316406	330.466064453125	262.8821411132812	-509.8511352539062	366.9663391113281	46.9903678894043	-672.1314086914062	411.0696105957031	29.0365104675293	-606.196533203125	300.9613647460938	51.36868286132812	-587.4368896484375	393.7408447265625	48.88565826416016	-435.5846862792969	695.60595703125	452.8136596679688	-529.8726196289062	729.98046875	712.5606079101562	-566.773681640625	680.4815063476562	335.5490112304688	-536.1870727539062	590.7596435546875	39.61202239990234	-662.3519897460938	551.7010498046875	38.53855895996094	-606.7319946289062	663.498291015625	27.61618041992188	-568.2862548828125	649.21728515625	38.25177764892578	-468.6235656738281	601.408935546875	45.85200119018555	-420.2530822753906	nan	nan	nan	nan	nan	nan	nan	nan	nan	
257	2.56	651.0446166992188	970.9505004882812	-396.0775146484375	524.4244995117188	974.4457397460938	-374.8674926757812	594.5328979492188	1026.303588867188	-386.3983764648438	557.7357177734375	1227.37451171875	-602.5936279296875	593.9872436523438	1145.056274414062	-370.1669311523438	576.4826049804688	1396.151733398438	-392.6689453125	560.9296264648438	1350.40478515625	-551.4769897460938	648.775634765625	1254.393920898438	-362.1850891113281	477.7631225585938	1358.793090820312	-369.7194519042969	410.2673645019531	1379.809326171875	-444.9872131347656	348.6309204101562	1260.502685546875	-415.1864318847656	331.1798706054688	1058.44580078125	-417.2099609375	404.0870971679688	1043.460693359375	-376.1995544433594	331.1653442382812	812.1756591796875	-514.4105224609375	292.2766418457031	804.815673828125	-457.6281433105469	315.7933654785156	954.0863647460938	-425.0404968261719	325.9134216308594	650.1826782226562	-510.2266845703125	298.2416687011719	735.266845703125	-452.6348876953125	311.8839111328125	734.81787109375	-514.9190673828125	731.4599609375	1386.210205078125	-470.5873107910156	793.4381713867188	1319.469116210938	-473.89208984375	831.1942138671875	1057.109375	-538.4705810546875	751.6618041992188	1040.064697265625	-491.6308898925781	750.9397583007812	881.3949584960938	-706.784423828125	818.9393920898438	850.5790405273438	-689.6415405273438	834.1126708984375	998.2799682617188	-581.913818359375	739.483642578125	724.7730102539062	-781.4229736328125	749.6557006835938	797.3560791015625	-770.4567260742188	805.0931396484375	778.77001953125	-732.9608154296875	650.1536254882812	1607.451904296875	-448.6008605957031	505.8321228027344	1619.94873046875	-598.4464111328125	607.1893920898438	1621.753173828125	-604.9778442382812	510.9419555664062	1600.623657226562	-412.8026428222656	407.6208190917969	923.3425903320312	-449.8403625488281	759.6854248046875	920.4003295898438	-488.133544921875	690.8629760742188	948.3279418945312	-588.5008544921875	450.6786499023438	954.4402465820312	-575.209716796875	361.3152465820312	473.9096069335938	-552.0494384765625	367.2536926269531	613.1546630859375	-531.3939208984375	324.1804504394531	56.30184555053711	-464.8177185058594	329.6465454101562	262.0420532226562	-508.3215637207031	365.6396179199219	43.78556442260742	-672.180419921875	410.3815612792969	27.68689155578613	-605.8781127929688	299.8739929199219	48.6191520690918	-587.2574462890625	393.2997741699219	48.44273376464844	-435.3891296386719	695.4632568359375	452.7634582519531	-530.2080078125	729.784912109375	712.5174560546875	-568.20849609375	680.40771484375	335.566162109375	-536.2471313476562	590.7721557617188	39.625	-662.3319702148438	551.6983642578125	38.54502487182617	-606.689208984375	663.4951782226562	27.6208553314209	-568.2806396484375	649.248291015625	38.23752975463867	-468.6145935058594	601.43408203125	45.76312637329102	-420.2149658203125	nan	nan	nan	nan	nan	nan	nan	nan	nan	
258	2.57	650.2415771484375	970.5347290039062	-397.9339599609375	523.4811401367188	973.6188354492188	-376.9747924804688	593.6224975585938	1025.617065429688	-388.2252502441406	557.291015625	1226.943237304688	-604.1525268554688	593.0745849609375	1144.416015625	-371.7051696777344	575.7183837890625	1395.544067382812	-394.0211486816406	560.46435546875	1349.927001953125	-552.9148559570312	647.9124755859375	1253.760498046875	-363.4619445800781	476.9559326171875	1358.158325195312	-371.2389221191406	409.5480651855469	1379.239379882812	-446.6921997070312	347.6656188964844	1259.818237304688	-417.7865295410156	329.6420593261719	1057.696899414062	-422.0216979980469	401.9166564941406	1042.267700195312	-380.1278076171875	330.7063903808594	813.4257202148438	-523.5366821289062	290.8240661621094	804.946533203125	-467.5010681152344	314.2108154296875	953.420654296875	-431.6469421386719	325.1589965820312	651.4346923828125	-523.131103515625	296.7645874023438	735.235595703125	-463.9822082519531	311.2298889160156	736.2207641601562	-526.05419921875	730.8701171875	1385.6044921875	-471.7190551757812	792.807373046875	1318.795654296875	-474.7689208984375	829.4178466796875	1055.750854492188	-536.8336791992188	749.4134521484375	1039.361206054688	-490.4482116699219	750.5660400390625	875.9280395507812	-701.7924194335938	818.5054321289062	845.763427734375	-683.4461669921875	832.4782104492188	996.259521484375	-579.2044677734375	740.2227172851562	717.220947265625	-772.1566162109375	749.9219360351562	790.1041259765625	-763.1397705078125	805.2694702148438	772.8307495117188	-724.8336791992188	649.4526977539062	1606.95703125	-449.9114685058594	505.3750915527344	1619.31201171875	-600.0020141601562	606.740478515625	1621.109497070312	-606.3756103515625	510.1856079101562	1600.1787109375	-414.3297119140625	407.0305786132812	922.4583740234375	-451.8862915039062	758.9822387695312	920.4401245117188	-489.9712219238281	690.2615966796875	948.3009033203125	-590.38427734375	450.0273132324219	953.6990966796875	-577.5064697265625	360.3392639160156	472.6531982421875	-549.7227783203125	366.5281372070312	612.2225341796875	-530.8921508789062	323.5916137695312	55.15341567993164	-464.6430358886719	328.8294067382812	261.1260986328125	-506.7393188476562	364.4471740722656	41.43235397338867	-672.3692016601562	409.7440490722656	26.82965850830078	-605.8060302734375	298.8909912109375	46.3541259765625	-587.2427978515625	392.8778686523438	47.73203659057617	-435.3965759277344	695.3541259765625	452.755859375	-530.4058837890625	729.5479125976562	712.4444580078125	-569.6015625	680.3843994140625	335.6116638183594	-536.1785888671875	590.787353515625	39.64005661010742	-662.301513671875	551.7075805664062	38.56919097900391	-606.6419067382812	663.4965209960938	27.62424850463867	-568.2764892578125	649.301513671875	38.22702026367188	-468.6108703613281	601.4560546875	45.66842651367188	-420.1680297851562	nan	nan	nan	nan	nan	nan	nan	nan	nan	
259	2.58	649.4004516601562	970.1010131835938	-399.7935180664062	522.4739379882812	972.7559814453125	-379.203125	592.672119140625	1024.8916015625	-390.060302734375	556.8190307617188	1226.506591796875	-605.6741333007812	592.1292114257812	1143.73876953125	-373.2277221679688	574.9429321289062	1394.902099609375	-395.3121337890625	559.9678955078125	1349.439086914062	-554.2968139648438	647.030029296875	1253.08154296875	-364.7032775878906	476.1306457519531	1357.466430664062	-372.6804809570312	408.8102722167969	1378.607788085938	-448.3142395019531	346.6801452636719	1259.075927734375	-420.32470703125	328.0095520019531	1056.924194335938	-426.8622436523438	399.6368713378906	1041.029174804688	-384.0723266601562	330.2443542480469	814.7586059570312	-532.6641845703125	289.3219604492188	805.1822509765625	-477.4393615722656	312.5426940917969	952.7714233398438	-438.3062744140625	324.3643188476562	652.8853759765625	-536.1105346679688	295.2375793457031	735.3407592773438	-475.4275512695312	310.5577392578125	737.7648315429688	-537.2366333007812	730.2601928710938	1384.988037109375	-472.8080749511719	792.1498413085938	1318.105590820312	-475.6160583496094	827.6049194335938	1054.413330078125	-535.1995239257812	747.1848754882812	1038.719604492188	-489.1671447753906	750.2688598632812	870.4490966796875	-696.6231079101562	818.1530151367188	841.0122680664062	-677.0466918945312	830.8275146484375	994.297119140625	-576.479736328125	741.1643676757812	709.769775390625	-762.60986328125	750.3682250976562	782.901611328125	-755.5621337890625	805.5869140625	766.9886474609375	-716.4328002929688	648.7122192382812	1606.48046875	-451.1719055175781	504.8581848144531	1618.63427734375	-601.4969482421875	606.228759765625	1620.434814453125	-607.7130737304688	509.375244140625	1599.723510742188	-415.7925415039062	406.3446960449219	921.54833984375	-453.94970703125	758.2096557617188	920.4564819335938	-491.8544921875	689.5908813476562	948.25048828125	-592.3133544921875	449.2849426269531	952.9236450195312	-579.83447265625	359.404296875	471.3844299316406	-547.2024536132812	365.792724609375	611.2407836914062	-530.1633911132812	323.0206298828125	53.93685150146484	-464.5897216796875	328.0273132324219	260.1657104492188	-505.1447448730469	363.427734375	39.85794067382812	-672.6510620117188	409.1751708984375	26.39055824279785	-605.921875	298.0361328125	44.56268692016602	-587.3584594726562	392.4682006835938	46.81771469116211	-435.5435180664062	695.2700805664062	452.7928466796875	-530.4641723632812	729.25634765625	712.3317260742188	-570.9678344726562	680.406005859375	335.6891174316406	-535.9774169921875	590.8045654296875	39.65844345092773	-662.2614135742188	551.7263793945312	38.60744094848633	-606.5887451171875	663.5017700195312	27.62631034851074	-568.2734985351562	649.3775024414062	38.22237014770508	-468.6124877929688	601.4771118164062	45.56847381591797	-420.1137084960938	nan	nan	nan	nan	nan	nan	nan	nan	nan	
